HIERARCHY
ROOT Pelvis
{
	OFFSET 0.000000 0.000000 0.000000
	CHANNELS 6 Xposition Yposition Zposition Xrotation Yrotation Zrotation
	JOINT LeftUpLeg_virtual
	{
		OFFSET 0.000000 0.000000 0.000000
		CHANNELS 3 Xrotation Yrotation Zrotation
		JOINT LeftUpLeg
		{
			OFFSET 18.735201 -5.666702 -4.541200
			CHANNELS 3 Xrotation Yrotation Zrotation
			JOINT LeftLeg
			{
				OFFSET -0.021200 -31.938179 0.493100
				CHANNELS 3 Xrotation Yrotation Zrotation
				JOINT LeftFoot
				{
					OFFSET 0.021200 -31.938179 -4.336299
					CHANNELS 3 Xrotation Yrotation Zrotation
					JOINT LeftToeBase
					{
						OFFSET 0.943001 -26.722000 15.023500
						CHANNELS 3 Xrotation Yrotation Zrotation
						End Site
						{
							OFFSET 0 0 0
						}
					}
				}
			}
		}
	}
	JOINT RightUpLeg_virtual
	{
		OFFSET 0.000000 0.000000 0.000000
		CHANNELS 3 Xrotation Yrotation Zrotation
		JOINT RightUpLeg
		{
			OFFSET -18.735201 -5.666702 -4.541200
			CHANNELS 3 Xrotation Yrotation Zrotation
			JOINT RightLeg
			{
				OFFSET 0.018946 -31.938133 0.493100
				CHANNELS 3 Xrotation Yrotation Zrotation
				JOINT RightFoot
				{
					OFFSET -0.018946 -31.938126 -4.336299
					CHANNELS 3 Xrotation Yrotation Zrotation
					JOINT RightToeBase
					{
						OFFSET -0.943001 -26.722004 15.023500
						CHANNELS 3 Xrotation Yrotation Zrotation
						End Site
						{
							OFFSET 0 0 0
						}
					}
				}
			}
		}
	}
	JOINT Hips_virtual
	{
		OFFSET 0.000000 0.000000 0.000000
		CHANNELS 3 Xrotation Yrotation Zrotation
		JOINT Hips
		{
			OFFSET -0.000000 -0.000000 -0.000000
			CHANNELS 3 Xrotation Yrotation Zrotation
			JOINT Spine
			{
				OFFSET 0.000000 10.199997 -0.299500
				CHANNELS 3 Xrotation Yrotation Zrotation
				JOINT Spine1
				{
					OFFSET 0.000000 11.900002 -1.516600
					CHANNELS 3 Xrotation Yrotation Zrotation
					JOINT Spine2
					{
						OFFSET 0.000000 13.600006 -2.842500
						CHANNELS 3 Xrotation Yrotation Zrotation
						JOINT Neck_virtual
						{
							OFFSET 0.000000 0.000000 0.000000
							CHANNELS 3 Xrotation Yrotation Zrotation
							JOINT Neck
							{
								OFFSET 0.000000 9.624100 -2.890100
								CHANNELS 3 Xrotation Yrotation Zrotation
								JOINT Head
								{
									OFFSET 0.000000 14.068802 -1.351900
									CHANNELS 3 Xrotation Yrotation Zrotation
									End Site
									{
										OFFSET 0 0 0
									}
								}
							}
						}
						JOINT LeftShoulder_virtual
						{
							OFFSET 0.000000 0.000000 0.000000
							CHANNELS 3 Xrotation Yrotation Zrotation
							JOINT LeftShoulder
							{
								OFFSET 15.263000 10.923401 -0.547700
								CHANNELS 3 Xrotation Yrotation Zrotation
								JOINT LeftArm
								{
									OFFSET 25.438599 -2.830597 -13.032500
									CHANNELS 3 Xrotation Yrotation Zrotation
									JOINT LeftForeArm
									{
										OFFSET 29.960503 0.000000 0.000000
										CHANNELS 3 Xrotation Yrotation Zrotation
										JOINT LeftHand
										{
											OFFSET 27.849251 0.000000 0.000000
											CHANNELS 3 Xrotation Yrotation Zrotation
											End Site
											{
												OFFSET 0 0 0
											}
										}
									}
								}
							}
						}
						JOINT RightShoulder_virtual
						{
							OFFSET 0.000000 0.000000 0.000000
							CHANNELS 3 Xrotation Yrotation Zrotation
							JOINT RightShoulder
							{
								OFFSET -15.263000 10.923401 -0.547700
								CHANNELS 3 Xrotation Yrotation Zrotation
								JOINT RightArm
								{
									OFFSET -25.438599 -2.830597 -13.032500
									CHANNELS 3 Xrotation Yrotation Zrotation
									JOINT RightForeArm
									{
										OFFSET -29.960503 0.000000 0.000000
										CHANNELS 3 Xrotation Yrotation Zrotation
										JOINT RightHand
										{
											OFFSET -27.849251 0.000000 0.000000
											CHANNELS 3 Xrotation Yrotation Zrotation
											End Site
											{
												OFFSET 0 0 0
											}
										}
									}
								}
							}
						}
					}
				}
			}
		}
	}
}
MOTION
Frames: 11
Frame Time: 0.03333333
0.075385 93.039749 4.119406 0.000000 0.000000 0.000000 1.892617 0.289918 -0.238166 -9.663925 -5.893862 11.728586 20.872319 -0.891170 -1.849965 -10.224155 15.306915 -10.563849 0.000000 0.000000 0.000000 1.892617 0.289918 -0.238166 -6.984652 -4.437395 -10.836143 19.819365 0.860614 -0.235457 -12.878643 -12.275149 9.736582 0.000000 0.000000 0.000000 1.892617 0.289918 -0.238166 0.000000 0.000000 0.000000 2.070963 0.275684 0.912760 3.430438 -0.015269 0.185037 0.000000 0.000000 0.000000 3.430499 0.005499 0.178976 -1.410893 -0.005340 -0.007984 0.000000 0.000000 0.000000 3.430499 0.005499 0.178976 0.742837 8.952359 -13.053722 10.740853 -6.252034 -54.033859 0.000006 -33.005906 0.000004 0.000000 0.000000 0.000000 3.430499 0.005499 0.178976 1.078069 -8.352865 11.371666 3.407872 18.890949 61.317299 -0.000002 23.538785 0.000006 0.000000 0.000000 0.000000 
0.586435 92.957474 4.134785 0.000000 0.000000 0.000000 1.971363 0.181260 -0.223306 -10.493020 -5.563398 11.494793 21.941351 -1.104222 -1.998641 -10.872642 14.279481 -10.089313 0.000000 0.000000 0.000000 1.971363 0.181260 -0.223306 -7.098891 -4.335903 -11.334489 19.734737 0.980660 -0.232410 -12.651837 -12.314718 10.207202 0.000000 0.000000 0.000000 1.971363 0.181260 -0.223306 0.000000 0.000000 0.000000 2.228440 0.144612 0.875988 3.366062 -0.047926 0.178463 0.000000 0.000000 0.000000 3.366261 -0.027680 0.173012 -1.384430 -0.002325 -0.008040 0.000000 0.000000 0.000000 3.366261 -0.027680 0.173012 0.736160 8.634891 -13.051691 10.465395 -6.468722 -54.238580 0.000004 -32.925415 -0.000009 0.000000 0.000000 0.000000 3.366261 -0.027680 0.173012 1.102348 -8.042777 11.607337 3.214949 18.780590 60.984375 -0.000002 23.113685 0.000005 0.000000 0.000000 0.000000 
1.102137 92.874359 4.125135 0.000000 0.000000 0.000000 2.047197 0.077309 -0.207082 -11.348779 -5.213164 11.282916 22.973743 -1.360255 -2.150208 -11.459633 13.161810 -9.616582 0.000000 0.000000 0.000000 2.047197 0.077309 -0.207082 -7.241189 -4.236748 -11.835838 19.664878 1.095378 -0.229779 -12.411322 -12.345022 10.669882 0.000000 0.000000 0.000000 2.047197 0.077309 -0.207082 0.000000 0.000000 0.000000 2.391756 0.013461 0.833630 3.299831 -0.080446 0.171142 0.000000 0.000000 0.000000 3.300181 -0.060740 0.166296 -1.358483 0.000807 -0.008097 0.000000 0.000000 0.000000 3.300181 -0.060740 0.166296 0.729728 8.312050 -13.050097 10.192952 -6.689419 -54.453038 0.000003 -32.826555 -0.000004 0.000000 0.000000 0.000000 3.300181 -0.060740 0.166296 1.124653 -7.724696 11.847047 3.010283 18.678491 60.639772 0.000004 22.673023 -0.000017 0.000000 0.000000 0.000000 
1.621769 92.790276 4.094906 0.000000 0.000000 0.000000 2.120638 -0.022734 -0.189936 -12.221387 -4.850934 11.083905 23.974376 -1.640223 -2.299217 -11.990021 11.981673 -9.147142 0.000000 0.000000 0.000000 2.120638 -0.022734 -0.189936 -7.404092 -4.137793 -12.343190 19.598661 1.209568 -0.227019 -12.146591 -12.370004 11.139622 0.000000 0.000000 0.000000 2.120638 -0.022734 -0.189936 0.000000 0.000000 0.000000 2.559759 -0.117785 0.786904 3.232089 -0.112856 0.163210 0.000000 0.000000 0.000000 3.232568 -0.093704 0.158966 -1.332799 0.004043 -0.008153 0.000000 0.000000 0.000000 3.232568 -0.093704 0.158966 0.723528 7.984865 -13.048741 9.926439 -6.917192 -54.675306 0.000005 -32.712884 -0.000003 0.000000 0.000000 0.000000 3.232568 -0.093704 0.158966 1.144755 -7.400145 12.089763 2.794426 18.583893 60.286542 0.000001 22.219837 0.000000 0.000000 0.000000 0.000000 
2.144308 92.705521 4.048134 0.000000 0.000000 0.000000 2.192201 -0.119742 -0.172208 -13.099450 -4.480600 10.891863 24.944008 -1.911616 -2.442539 -12.466617 10.749767 -8.685875 0.000000 0.000000 0.000000 2.192201 -0.119742 -0.172208 -7.578971 -4.038754 -12.855850 19.525072 1.324628 -0.223873 -11.854247 -12.392915 11.620127 0.000000 0.000000 0.000000 2.192201 -0.119742 -0.172208 0.000000 0.000000 0.000000 2.732922 -0.249079 0.735894 3.162680 -0.145143 0.154605 0.000000 0.000000 0.000000 3.163292 -0.126561 0.150962 -1.307561 0.007407 -0.007494 0.000000 0.000000 0.000000 3.163292 -0.126561 0.150962 0.717565 7.653005 -13.047676 9.666118 -7.152677 -54.905483 -0.000007 -32.583219 -0.000002 0.000000 0.000000 0.000000 3.163292 -0.126561 0.150962 1.162525 -7.068633 12.335784 2.566463 18.497472 59.924207 -0.000001 21.753104 -0.000001 0.000000 0.000000 0.000000 
2.668612 92.621025 3.989361 0.000000 0.000000 0.000000 2.262407 -0.214546 -0.153968 -13.968135 -4.112456 10.697607 25.879831 -2.152456 -2.575714 -12.893286 9.495501 -8.235530 0.000000 0.000000 0.000000 2.262407 -0.214546 -0.153968 -7.753505 -3.937479 -13.368490 19.430430 1.435292 -0.220496 -11.537451 -12.413602 12.102977 0.000000 0.000000 0.000000 2.262407 -0.214546 -0.153968 0.000000 0.000000 0.000000 2.910788 -0.380419 0.681016 3.091727 -0.177317 0.145381 0.000000 0.000000 0.000000 3.092480 -0.159321 0.142335 -1.282899 0.010879 -0.006957 0.000000 0.000000 0.000000 3.092480 -0.159321 0.142335 0.711822 7.316949 -13.046782 9.411591 -7.394897 -55.143198 -0.000005 -32.439273 -0.000015 0.000000 0.000000 0.000000 3.092480 -0.159321 0.142335 1.177810 -6.730867 12.584606 2.326436 18.419014 59.554339 -0.000002 21.274270 0.000016 0.000000 0.000000 0.000000 
3.193649 92.537437 3.922974 0.000000 0.000000 0.000000 2.331772 -0.307993 -0.135365 -14.812414 -3.762224 10.488529 26.780159 -2.346985 -2.692859 -13.276393 8.260879 -7.797224 0.000000 0.000000 0.000000 2.331772 -0.307993 -0.135365 -7.916610 -3.829803 -13.878616 19.301889 1.536995 -0.214911 -11.194485 -12.431798 12.588241 0.000000 0.000000 0.000000 2.331772 -0.307993 -0.135365 0.000000 0.000000 0.000000 3.092497 -0.511772 0.623045 3.019493 -0.209397 0.135643 0.000000 0.000000 0.000000 3.020391 -0.191999 0.133191 -1.258962 0.014440 -0.006507 0.000000 0.000000 0.000000 3.020391 -0.191999 0.133191 0.706287 6.977573 -13.045911 9.162109 -7.642070 -55.387438 -0.000002 -32.283975 -0.000010 0.000000 0.000000 0.000000 3.020391 -0.191999 0.133191 1.190441 -6.388125 12.835385 2.074943 18.347865 59.179450 0.000002 20.785814 -0.000008 0.000000 0.000000 0.000000 
3.718426 92.455536 3.853359 0.000000 0.000000 0.000000 2.400819 -0.400935 -0.116555 -15.616078 -3.450221 10.253401 27.642085 -2.482435 -2.791614 -13.623524 7.094628 -7.370970 0.000000 0.000000 0.000000 2.400819 -0.400935 -0.116555 -8.057262 -3.716487 -14.383945 19.125534 1.628801 -0.208352 -10.823572 -12.449475 13.075084 0.000000 0.000000 0.000000 2.400819 -0.400935 -0.116555 0.000000 0.000000 0.000000 3.277195 -0.643099 0.562761 2.946243 -0.241403 0.125495 0.000000 0.000000 0.000000 2.947267 -0.224612 0.123636 -1.235736 0.018080 -0.005840 0.000000 0.000000 0.000000 2.947267 -0.224612 0.123636 0.700949 6.635711 -13.044907 8.916986 -7.892500 -55.637427 0.000004 -32.120228 -0.000017 0.000000 0.000000 0.000000 2.947267 -0.224612 0.123636 1.200300 -6.041646 13.087330 1.812710 18.283301 58.802000 -0.000005 20.290218 0.000004 0.000000 0.000000 0.000000 
4.241873 92.376152 3.784912 0.000000 0.000000 0.000000 2.470073 -0.494229 -0.097665 -16.363152 -3.200599 9.982123 28.463343 -2.547994 -2.877358 -13.944515 6.048704 -6.951730 0.000000 0.000000 0.000000 2.470073 -0.494229 -0.097665 -8.167414 -3.608544 -14.884401 18.887573 1.719545 -0.200983 -10.423135 -12.465870 13.560918 0.000000 0.000000 0.000000 2.470073 -0.494229 -0.097665 0.000000 0.000000 0.000000 3.464238 -0.774356 0.500796 2.872163 -0.273349 0.115018 0.000000 0.000000 0.000000 2.873324 -0.257173 0.113749 -1.213147 0.021806 -0.004654 0.000000 0.000000 0.000000 2.873324 -0.257173 0.113749 0.695803 6.292048 -13.043646 8.675602 -8.144790 -55.892367 0.000006 -31.950361 0.000013 0.000000 0.000000 0.000000 2.873324 -0.257173 0.113749 1.207309 -5.692444 13.339817 1.540421 18.224751 58.423854 -0.000008 19.789442 0.000018 0.000000 0.000000 0.000000 
4.763028 92.300232 3.722086 0.000000 0.000000 0.000000 2.540056 -0.588733 -0.078820 -17.038230 -3.035415 9.659647 29.241266 -2.532216 -2.945360 -14.249182 5.175807 -6.540149 0.000000 0.000000 0.000000 2.540056 -0.588733 -0.078820 -8.241027 -3.526432 -15.381357 18.572770 1.825778 -0.192978 -9.991274 -12.479946 14.041727 0.000000 0.000000 0.000000 2.540056 -0.588733 -0.078820 0.000000 0.000000 0.000000 3.653094 -0.905496 0.437705 2.797415 -0.305247 0.104277 0.000000 0.000000 0.000000 2.798711 -0.289693 0.103598 -1.190517 0.025267 -0.002265 0.000000 0.000000 0.000000 2.798711 -0.289693 0.103598 0.690843 5.947151 -13.042039 8.437522 -8.397769 -56.151651 -0.000007 -31.776379 0.000013 0.000000 0.000000 0.000000 2.798711 -0.289693 0.103598 1.211416 -5.341368 13.592311 1.258676 18.171696 58.046677 -0.000000 19.285164 0.000006 0.000000 0.000000 0.000000 
5.281024 92.228920 3.669344 0.000000 0.000000 0.000000 2.611289 -0.685306 -0.060173 -17.627525 -2.967280 9.275113 29.972325 -2.422028 -2.992040 -14.547451 4.516336 -6.138490 0.000000 0.000000 0.000000 2.611289 -0.685306 -0.060173 -8.269759 -3.486941 -15.875528 18.162089 1.956792 -0.184219 -9.523784 -12.487261 14.515405 0.000000 0.000000 0.000000 2.611289 -0.685306 -0.060173 0.000000 0.000000 0.000000 3.843233 -1.036462 0.374065 2.722172 -0.337109 0.093338 0.000000 0.000000 0.000000 2.723596 -0.322180 0.093248 -1.166898 0.028610 0.000832 0.000000 0.000000 0.000000 2.723596 -0.322180 0.093248 0.686059 5.601598 -13.039988 8.202252 -8.650299 -56.414740 -0.000005 -31.600174 -0.000023 0.000000 0.000000 0.000000 2.723596 -0.322180 0.093248 1.212588 -4.989271 13.844318 0.968222 18.123576 57.672041 -0.000001 18.779014 -0.000014 0.000000 0.000000 0.000000 
